<?xml version="1.0" encoding="utf-8"?>
<!-- Generator: Adobe Illustrator 25.4.1, SVG Export Plug-In . SVG Version: 6.00 Build 0)  -->
<svg version="1.1" xmlns="http://www.w3.org/2000/svg" xmlns:xlink="http://www.w3.org/1999/xlink" x="0px" y="0px"
	 viewBox="0 0 283.44 283.46" style="enable-background:new 0 0 283.44 283.46;" xml:space="preserve">
<style type="text/css">
	.st0{display:none;}
	.st1{fill:#FFFFFF;stroke:#1D1D1B;}
	.st2{fill-rule:evenodd;clip-rule:evenodd;fill:#006699;}
</style>
<g id="Hintergrund" class="st0">
</g>
<g id="Hilfslinien_anzeigen" class="st0">
</g>
<g id="Vordergrund">
	<rect x="13.79" y="19.47" class="st1" width="251.35" height="242.62"/>
	<g>
		<path class="st2" d="M202.75,138.27c0.46-0.08,0.8-0.14,1.25-0.25c11.39-2.89,19.88-13.87,19.88-26.08l-0.26-83.47h30.87v83.91
			c0.03,29.16-22.11,53.41-50.49,56.41l-1.25,0.13L202.75,138.27z M193.57,168.92l-1.6-0.13c-28.37-2.96-50.31-26.94-50.31-56.1
			V28.48h30.67l-0.05,83.47c0,12.21,8.49,23.19,19.88,26.08c0.5,0.12,0.89,0.2,1.4,0.29L193.57,168.92z M118.64,254.45v-49.89h-9.74
			v49.89H118.64z M184.86,254.45v-8.69h-23.12v-12.12h19.69v-8.69h-19.69v-11.7h23.12v-8.69H152v49.89H184.86z M254.63,254.45
			v-49.89h-9.74v30.55l-19.76-30.55h-8.69v49.89h9.74v-30.62l19.76,30.62H254.63z M85.72,204.56H75.56l-7.78,31.46l-9.11-31.46
			h-7.29l-9.11,31.46l-7.71-31.46H24.42l13.31,49.89h8.13l9.18-30.27l9.18,30.27h8.13L85.72,204.56z M21.79,28.48h105.86v30.27
			H21.79V28.48z M60.1,168.12V67.55h30.27v100.58H60.1z M255.11,0c15.65,0,28.29,12.7,28.29,28.36l0.06,226.74
			c0,15.66-12.74,28.36-28.39,28.36H28.34C12.7,283.46,0,270.77,0,255.11L0.02,28.36C0.02,12.7,12.68,0,28.32,0H255.11z"/>
	</g>
</g>
</svg>
