<svg xmlns="http://www.w3.org/2000/svg" viewBox="0 0 100.11 116.78"><defs><style>.cls-1,.cls-2{fill:#5e7678;}.cls-2{font-size:10.3px;font-family:MuktaMahee-Medium, Mukta Mahee;font-weight:500;letter-spacing:0em;}.cls-3{letter-spacing:0em;}.cls-4{letter-spacing:-0.01em;}.cls-5{letter-spacing:0em;}.cls-6{letter-spacing:0em;}.cls-7{letter-spacing:0em;}.cls-8{letter-spacing:0.01em;}.cls-9{letter-spacing:-0.01em;}.cls-10{letter-spacing:-0.01em;}.cls-11{letter-spacing:0em;}.cls-12{letter-spacing:-0.01em;}.cls-13{letter-spacing:-0.01em;}.cls-14{letter-spacing:0em;}.cls-15{letter-spacing:-0.01em;}.cls-16{letter-spacing:0.02em;}.cls-17{letter-spacing:0.03em;}</style></defs><title>DS-IFS_trans_vector</title><g id="Ebene_2" data-name="Ebene 2"><g id="Ebene_1-2" data-name="Ebene 1"><path class="cls-1" d="M49.2,62.05l-.27-.85c-.1-.32-.21-.65-.31-1s-.21-.67-.29-1h0c-.09.3-.18.61-.29,1l-.32,1-.3.84c-.1.25-.17.45-.22.6l-2,5.4h6.22l-2-5.4C49.34,62.48,49.29,62.3,49.2,62.05Z"/><path class="cls-1" d="M25.76,60.2c-.1-.35-.2-.67-.28-1h-.05c-.09.3-.18.61-.29,1s-.22.65-.33,1-.2.59-.3.84l-.21.6-2,5.4H28.5l-2-5.4c0-.1-.1-.28-.18-.53l-.27-.85Z"/><path class="cls-1" d="M14.77,60.69a5.54,5.54,0,0,0-2-1.28A7.33,7.33,0,0,0,10.17,59H7.3V72.63H9.52a10.36,10.36,0,0,0,2.55-.32,5.68,5.68,0,0,0,2.25-1.12A5.8,5.8,0,0,0,15.94,69a9,9,0,0,0,.61-3.54,7.68,7.68,0,0,0-.46-2.72A5.71,5.71,0,0,0,14.77,60.69Z"/><path class="cls-1" d="M.9,0V99.21h99.21V0ZM16.35,91.36a4.31,4.31,0,0,1-1.14,1.56A5.53,5.53,0,0,1,13.29,94a8.66,8.66,0,0,1-2.74.39,12.8,12.8,0,0,1-2.81-.31,10.93,10.93,0,0,1-2.47-.89l.85-2.78a13.63,13.63,0,0,0,2.1.83,7.65,7.65,0,0,0,2.15.3,3.29,3.29,0,0,0,1.92-.44,1.4,1.4,0,0,0,.58-1.19,1.31,1.31,0,0,0-.1-.5,1.35,1.35,0,0,0-.38-.5,3.58,3.58,0,0,0-.8-.48,9.92,9.92,0,0,0-1.32-.49l-1.22-.43a12.15,12.15,0,0,1-1.63-.72,5.26,5.26,0,0,1-1.28-1,4,4,0,0,1-.84-1.28A4.48,4.48,0,0,1,5,82.82a4.61,4.61,0,0,1,.39-1.9,3.93,3.93,0,0,1,1.15-1.51,5.38,5.38,0,0,1,1.87-1A8,8,0,0,1,11,78a10.81,10.81,0,0,1,2.85.34,10.75,10.75,0,0,1,2.08.81L15.05,82a11.48,11.48,0,0,0-2-.79,6.85,6.85,0,0,0-1.89-.29,3,3,0,0,0-1.75.43,1.31,1.31,0,0,0-.6,1.12,1.29,1.29,0,0,0,.57,1.17,9.17,9.17,0,0,0,1.78.76l1.47.47a9,9,0,0,1,1.63.74,5.72,5.72,0,0,1,1.29,1,4.57,4.57,0,0,1,.83,1.3,4.12,4.12,0,0,1,.3,1.58A4.83,4.83,0,0,1,16.35,91.36Zm.9-22.06a6.54,6.54,0,0,1-4.38,4,11.31,11.31,0,0,1-3.12.43H6V57.93h4.62a8.47,8.47,0,0,1,2.89.47,6.48,6.48,0,0,1,2.31,1.41,6.56,6.56,0,0,1,1.53,2.35,9,9,0,0,1,.55,3.29A10.16,10.16,0,0,1,17.25,69.3Zm5.51,19.19a4.52,4.52,0,0,0,1,1.67,4,4,0,0,0,1.51,1,5.21,5.21,0,0,0,1.89.33,7.91,7.91,0,0,0,1.9-.2,4.58,4.58,0,0,0,1.3-.53l.75,2.73a7,7,0,0,1-1.62.6,10.62,10.62,0,0,1-2.73.3,9.52,9.52,0,0,1-3.4-.58,7.5,7.5,0,0,1-2.65-1.63A7.35,7.35,0,0,1,19,89.58a8.94,8.94,0,0,1-.61-3.39A9.13,9.13,0,0,1,19,82.86a7.24,7.24,0,0,1,1.67-2.58,7.54,7.54,0,0,1,2.65-1.65A10,10,0,0,1,26.83,78a9.39,9.39,0,0,1,2.68.32,9,9,0,0,1,1.64.63l-.85,2.78a7.22,7.22,0,0,0-1.36-.58,6.18,6.18,0,0,0-3.61,0,4,4,0,0,0-1.53.91,4.4,4.4,0,0,0-1,1.62,7.74,7.74,0,0,0,0,4.73Zm7.89-14.81L28.93,69h-7l-1.73,4.65H18.78l6-15.75h1.3l5.95,15.75Zm6.54,20.41h-3.8V78.34h3.8Zm.29-20.41h-1.3V59H30.85v-1h12v1H37.48ZM51.11,94.09H40.54V78.34H51v2.9h-6.7v3.23h6v2.87h-6v3.85h6.77ZM51.78,69H44.73L43,73.68H41.63l6-15.75H49L54.9,73.68H53.5ZM67.31,94.09h-3.5l-3.65-5.37q-.9-1.34-1.65-2.7a18.85,18.85,0,0,1-1.27-2.9h-.05c.08,1,.13,2.06.15,3s0,2,0,3v5h-3.5V78.34h3.5l3.45,5.28c.62.95,1.21,1.92,1.79,2.91a21.57,21.57,0,0,1,1.34,2.69H64c-.09-1-.14-2-.15-3s0-2,0-3V78.34h3.5Zm7-5.6a4.52,4.52,0,0,0,1,1.67,4,4,0,0,0,1.51,1,5.21,5.21,0,0,0,1.89.33,7.91,7.91,0,0,0,1.9-.2,4.58,4.58,0,0,0,1.3-.53l.75,2.73a7,7,0,0,1-1.62.6,10.62,10.62,0,0,1-2.73.3,9.52,9.52,0,0,1-3.4-.58,7.5,7.5,0,0,1-2.65-1.63,7.35,7.35,0,0,1-1.72-2.58,8.94,8.94,0,0,1-.61-3.39,9.13,9.13,0,0,1,.59-3.33,7.24,7.24,0,0,1,1.67-2.58,7.54,7.54,0,0,1,2.65-1.65A10,10,0,0,1,78.34,78a9.39,9.39,0,0,1,2.68.32,9,9,0,0,1,1.64.63l-.85,2.78a7.22,7.22,0,0,0-1.36-.58,6.18,6.18,0,0,0-3.61,0,4,4,0,0,0-1.53.91,4.4,4.4,0,0,0-1,1.62,7.74,7.74,0,0,0,0,4.73Zm21.16,5.6H84.85V78.34h10.5v2.9h-6.7v3.23h6v2.87h-6v3.85h6.78Z"/><text class="cls-2" transform="translate(0 110.86)">I<tspan class="cls-3" x="2.63" y="0">N</tspan><tspan class="cls-4" x="9.53" y="0">S</tspan><tspan class="cls-5" x="14.77" y="0">I</tspan><tspan class="cls-6" x="17.41" y="0">G</tspan><tspan class="cls-7" x="23.83" y="0">H</tspan><tspan class="cls-8" x="30.45" y="0">T</tspan><tspan class="cls-9" x="35.71" y="0">S </tspan><tspan class="cls-10" x="43.14" y="0">F</tspan><tspan class="cls-11" x="48.08" y="0">O</tspan><tspan class="cls-12" x="55.18" y="0">R </tspan><tspan class="cls-13" x="62.95" y="0">S</tspan><tspan class="cls-14" x="68.18" y="0">O</tspan><tspan class="cls-15" x="75.28" y="0">C</tspan><tspan x="80.95" y="0">I</tspan><tspan class="cls-16" x="83.58" y="0">E</tspan><tspan class="cls-17" x="88.95" y="0">T</tspan><tspan class="cls-9" x="94.45" y="0">Y</tspan></text></g></g></svg>